# xmcd
#
# Track frame offsets:
#	150
#	15705
#	31130
#	48607
#	66985
#	86760
#	105305
#	125075
#	146860
#	164155
#
# Disc length: 2391 seconds
#
# Revision: 1
# Processed by: cddbd v1.5.2PL0 Copyright (c) Steve Scherf et al.
# Submitted via: EasyCDDAExtractor 11.5.0.1
#
DISCID=9109550a
DTITLE=See U - Love Story Vol.01
DYEAR=2000
DGENRE=Dance
TTITLE0=정말이니?
TTITLE1=love story
TTITLE2=친구에서 연인으로
TTITLE3=pleasure
TTITLE4=마주보기
TTITLE5=forever friend
TTITLE6=슬픔이여 안녕
TTITLE7=missing you
TTITLE8=미워! 미워!
TTITLE9=love stroy(MR)
EXTD=
EXTT0=
EXTT1=
EXTT2=
EXTT3=
EXTT4=
EXTT5=
EXTT6=
EXTT7=
EXTT8=
EXTT9=
PLAYORDER=
